<svg width="20" height="20" viewBox="0 0 20 20" fill="none" xmlns="http://www.w3.org/2000/svg">
<path d="M10 0.666687C11.2377 0.666687 12.4247 1.15835 13.2999 2.03352C14.175 2.90869 14.6667 4.09568 14.6667 5.33335C14.6667 6.57103 14.175 7.75802 13.2999 8.63319C12.4247 9.50835 11.2377 10 10 10C8.76234 10 7.57536 9.50835 6.70019 8.63319C5.82502 7.75802 5.33335 6.57103 5.33335 5.33335C5.33335 4.09568 5.82502 2.90869 6.70019 2.03352C7.57536 1.15835 8.76234 0.666687 10 0.666687ZM10 3.00002C9.38118 3.00002 8.78769 3.24585 8.3501 3.68344C7.91252 4.12102 7.66669 4.71452 7.66669 5.33335C7.66669 5.95219 7.91252 6.54568 8.3501 6.98327C8.78769 7.42085 9.38118 7.66669 10 7.66669C10.6189 7.66669 11.2124 7.42085 11.6499 6.98327C12.0875 6.54568 12.3334 5.95219 12.3334 5.33335C12.3334 4.71452 12.0875 4.12102 11.6499 3.68344C11.2124 3.24585 10.6189 3.00002 10 3.00002ZM10 11.1667C13.115 11.1667 19.3334 12.7184 19.3334 15.8334V19.3334H0.666687V15.8334C0.666687 12.7184 6.88502 11.1667 10 11.1667ZM10 13.3834C6.53502 13.3834 2.88335 15.0867 2.88335 15.8334V17.1167H17.1167V15.8334C17.1167 15.0867 13.465 13.3834 10 13.3834Z" fill="black"/>
</svg>
